Coordinates
version=1
nRows=38
nColumns=12
inDegrees=yes

Units are S.I. units (second, meters, Newtons, ...)
Angles are in degrees

endheader
time	SC_y	SC_z	SC_x	AC_y	AC_z	AC_x	GH_y	GH_z	GH_yy	EL_x	PS_y
       0.0              -45.32          25.08          60.23          66.39         -17.45         -8.019         -79.26         -16.98         -29.32          83.21          13.87
   0.01121              -45.32          25.08          60.22          66.39         -17.45         -8.018         -79.27         -16.97         -29.34          83.21          13.89
   0.02241              -45.32          25.08          60.22          66.39         -17.44         -8.017         -79.28         -16.95         -29.36          83.22          13.92
   0.03362              -45.32          25.09          60.21          66.39         -17.44         -8.016          -79.3         -16.93         -29.38          83.22          13.94
   0.04483              -45.32          25.09           60.2          66.39         -17.44         -8.015         -79.31         -16.92          -29.4          83.23          13.97
   0.05603              -45.32          25.09          60.19          66.39         -17.43         -8.014         -79.33          -16.9         -29.43          83.23          13.99
   0.06724              -45.31          25.09          60.19          66.39         -17.43         -8.013         -79.35         -16.88         -29.45          83.24          14.02
   0.07845              -45.31           25.1          60.18          66.39         -17.42         -8.011         -79.36         -16.86         -29.48          83.24          14.05
   0.08965              -45.31           25.1          60.17          66.39         -17.42          -8.01         -79.38         -16.84         -29.51          83.25          14.08
    0.1009              -45.31           25.1          60.15          66.39         -17.41         -8.008          -79.4         -16.81         -29.54          83.25          14.12
    0.1121              -45.31           25.1          60.14          66.38         -17.41         -8.006         -79.43         -16.79         -29.57          83.26          14.16
    0.1233               -45.3          25.11          60.13          66.38          -17.4         -8.005         -79.45         -16.76         -29.61          83.27           14.2
    0.1345               -45.3          25.11          60.12          66.38         -17.39         -8.003         -79.48         -16.73         -29.65          83.27          14.24
    0.1457               -45.3          25.12           60.1          66.38         -17.39           -8.0         -79.51          -16.7         -29.69          83.28          14.29
    0.1569              -45.29          25.12          60.08          66.38         -17.38         -7.998         -79.54         -16.66         -29.73          83.29          14.34
    0.1681              -45.29          25.13          60.07          66.38         -17.37         -7.996         -79.57         -16.62         -29.78           83.3           14.4
    0.1793              -45.29          25.13          60.05          66.38         -17.36         -7.993         -79.61         -16.58         -29.84          83.31          14.46
    0.1905              -45.28          25.14          60.03          66.38         -17.35          -7.99         -79.65         -16.54         -29.89          83.32          14.53
    0.2017              -45.28          25.14          60.01          66.38         -17.34         -7.987         -79.69         -16.49         -29.96          83.34           14.6
    0.2129              -45.27          25.15          59.98          66.38         -17.33         -7.983         -79.74         -16.44         -30.03          83.35          14.68
    0.2241              -45.27          25.16          59.95          66.37         -17.31         -7.979         -79.79         -16.38          -30.1          83.36          14.76
    0.2353              -45.26          25.17          59.92          66.37          -17.3         -7.975         -79.85         -16.31         -30.19          83.38          14.86
    0.2465              -45.26          25.18          59.89          66.37         -17.28          -7.97         -79.91         -16.24         -30.28           83.4          14.97
    0.2578              -45.25          25.19          59.85          66.37         -17.26         -7.965         -79.98         -16.16         -30.38          83.42          15.08
     0.269              -45.24           25.2          59.81          66.37         -17.24         -7.959         -80.06         -16.07         -30.49          83.44          15.21
    0.2802              -45.23          25.21          59.77          66.36         -17.22         -7.952         -80.14         -15.98         -30.62          83.47          15.36
    0.2914              -45.22          25.23          59.72          66.36         -17.19         -7.945         -80.24         -15.87         -30.76          83.49          15.52
    0.3026              -45.21          25.24          59.66          66.36         -17.17         -7.937         -80.35         -15.74         -30.92          83.53           15.7
    0.3138               -45.2          25.26           59.6          66.35         -17.13         -7.927         -80.47          -15.6          -31.1          83.56          15.91
     0.325              -45.18          25.28          59.52          66.35          -17.1         -7.917         -80.61         -15.44         -31.31           83.6          16.15
    0.3362              -45.17          25.31          59.44          66.34         -17.06         -7.905         -80.77         -15.26         -31.54          83.65          16.41
    0.3474              -45.15          25.34          59.34          66.34         -17.01         -7.891         -80.96         -15.05         -31.81           83.7          16.72
    0.3586              -45.13          25.37          59.23          66.33         -16.95         -7.875         -81.17         -14.81         -32.12          83.76          17.08
    0.3698               -45.1          25.41           59.1          66.32         -16.89         -7.856         -81.42         -14.53         -32.49          83.84          17.49
     0.381              -45.07          25.45          58.95          66.31         -16.81         -7.834          -81.7         -14.21         -32.91          83.92          17.97
    0.3922              -45.04           25.5          58.78           66.3         -16.73         -7.809         -82.04         -13.82         -33.41          84.02          18.54
    0.4034               -45.0          25.56          58.57          66.29         -16.62         -7.778         -82.45         -13.36          -34.0          84.13          19.22
    0.4147              -44.95          25.64          58.31          66.28         -16.49         -7.742         -82.93         -12.82         -34.71          84.27          20.03
